<mxfile host="app.diagrams.net" modified="2024-07-02T14:50:27.482Z" agent="Mozilla/5.0 (Windows NT 10.0; Win64; x64) AppleWebKit/537.36 (KHTML, like Gecko) Chrome/126.0.0.0 Safari/537.36" etag="PSoHr0HGt6t-wzXU7P_c" version="24.6.4" type="device">
  <diagram name="Page-1" id="qLVLLSWyJxP3mZnmkvA5">
    <mxGraphModel dx="1150" dy="459" grid="1" gridSize="10" guides="1" tooltips="1" connect="1" arrows="1" fold="1" page="1" pageScale="1" pageWidth="827" pageHeight="1169" math="0" shadow="0">
      <root>
        <mxCell id="0" />
        <mxCell id="1" parent="0" />
        <mxCell id="VumtPwIBwzDiypWiYB3E-2" value="" style="rounded=0;whiteSpace=wrap;html=1;" parent="1" vertex="1">
          <mxGeometry x="300" y="80" width="360" height="520" as="geometry" />
        </mxCell>
        <mxCell id="-k_n3W3u2BF3PkI6crBI-2" value="Patient" style="shape=umlActor;verticalLabelPosition=bottom;verticalAlign=top;html=1;outlineConnect=0;" parent="1" vertex="1">
          <mxGeometry x="30" y="370" width="30" height="60" as="geometry" />
        </mxCell>
        <mxCell id="-k_n3W3u2BF3PkI6crBI-3" value="Doctor" style="shape=umlActor;verticalLabelPosition=bottom;verticalAlign=top;html=1;outlineConnect=0;" parent="1" vertex="1">
          <mxGeometry x="100" y="370" width="30" height="60" as="geometry" />
        </mxCell>
        <mxCell id="-k_n3W3u2BF3PkI6crBI-8" value="Create Appointment" style="ellipse;whiteSpace=wrap;html=1;" parent="1" vertex="1">
          <mxGeometry x="471" y="101" width="120" height="80" as="geometry" />
        </mxCell>
        <mxCell id="-k_n3W3u2BF3PkI6crBI-9" value="View All Appointments" style="ellipse;whiteSpace=wrap;html=1;" parent="1" vertex="1">
          <mxGeometry x="523" y="230" width="120" height="80" as="geometry" />
        </mxCell>
        <mxCell id="-k_n3W3u2BF3PkI6crBI-10" value="Update/Refresh Appointment" style="ellipse;whiteSpace=wrap;html=1;" parent="1" vertex="1">
          <mxGeometry x="475" y="340" width="120" height="80" as="geometry" />
        </mxCell>
        <mxCell id="-k_n3W3u2BF3PkI6crBI-11" value="Delete Appointment" style="ellipse;whiteSpace=wrap;html=1;" parent="1" vertex="1">
          <mxGeometry x="388" y="163" width="120" height="80" as="geometry" />
        </mxCell>
        <mxCell id="-k_n3W3u2BF3PkI6crBI-12" value="System&amp;nbsp;&lt;div&gt;Admin&lt;/div&gt;" style="shape=umlActor;verticalLabelPosition=bottom;verticalAlign=top;html=1;outlineConnect=0;" parent="1" vertex="1">
          <mxGeometry x="200" y="150" width="30" height="60" as="geometry" />
        </mxCell>
        <mxCell id="-k_n3W3u2BF3PkI6crBI-13" value="Extends" style="endArrow=block;endSize=16;endFill=0;html=1;rounded=0;exitX=0.5;exitY=0;exitDx=0;exitDy=0;exitPerimeter=0;" parent="1" source="-k_n3W3u2BF3PkI6crBI-3" edge="1">
          <mxGeometry width="160" relative="1" as="geometry">
            <mxPoint x="60" y="250" as="sourcePoint" />
            <mxPoint x="80" y="240" as="targetPoint" />
            <Array as="points">
              <mxPoint x="80" y="320" />
            </Array>
          </mxGeometry>
        </mxCell>
        <mxCell id="-k_n3W3u2BF3PkI6crBI-14" value="" style="endArrow=block;endSize=16;endFill=0;html=1;rounded=0;exitX=0.5;exitY=0;exitDx=0;exitDy=0;exitPerimeter=0;" parent="1" source="-k_n3W3u2BF3PkI6crBI-2" edge="1">
          <mxGeometry width="160" relative="1" as="geometry">
            <mxPoint x="30" y="373" as="sourcePoint" />
            <mxPoint x="80" y="240" as="targetPoint" />
            <Array as="points">
              <mxPoint x="80" y="320" />
            </Array>
          </mxGeometry>
        </mxCell>
        <mxCell id="-k_n3W3u2BF3PkI6crBI-16" value="Generate Script" style="ellipse;whiteSpace=wrap;html=1;" parent="1" vertex="1">
          <mxGeometry x="340" y="510" width="120" height="80" as="geometry" />
        </mxCell>
        <mxCell id="-k_n3W3u2BF3PkI6crBI-24" value="Search Appointment" style="ellipse;whiteSpace=wrap;html=1;" parent="1" vertex="1">
          <mxGeometry x="396" y="255" width="120" height="80" as="geometry" />
        </mxCell>
        <mxCell id="-k_n3W3u2BF3PkI6crBI-25" value="Filter Appointment in dates range" style="ellipse;whiteSpace=wrap;html=1;" parent="1" vertex="1">
          <mxGeometry x="474" y="425" width="120" height="80" as="geometry" />
        </mxCell>
        <mxCell id="-k_n3W3u2BF3PkI6crBI-26" value="" style="endArrow=none;html=1;rounded=0;" parent="1" source="-k_n3W3u2BF3PkI6crBI-12" target="-k_n3W3u2BF3PkI6crBI-8" edge="1">
          <mxGeometry width="50" height="50" relative="1" as="geometry">
            <mxPoint x="250" y="170" as="sourcePoint" />
            <mxPoint x="300" y="120" as="targetPoint" />
          </mxGeometry>
        </mxCell>
        <mxCell id="-k_n3W3u2BF3PkI6crBI-27" value="" style="endArrow=none;html=1;rounded=0;" parent="1" source="-k_n3W3u2BF3PkI6crBI-12" target="-k_n3W3u2BF3PkI6crBI-11" edge="1">
          <mxGeometry width="50" height="50" relative="1" as="geometry">
            <mxPoint x="240" y="188" as="sourcePoint" />
            <mxPoint x="482" y="158" as="targetPoint" />
          </mxGeometry>
        </mxCell>
        <mxCell id="-k_n3W3u2BF3PkI6crBI-28" value="" style="endArrow=none;html=1;rounded=0;entryX=0;entryY=0.5;entryDx=0;entryDy=0;" parent="1" source="-k_n3W3u2BF3PkI6crBI-12" target="-k_n3W3u2BF3PkI6crBI-9" edge="1">
          <mxGeometry width="50" height="50" relative="1" as="geometry">
            <mxPoint x="240" y="191" as="sourcePoint" />
            <mxPoint x="375" y="204" as="targetPoint" />
          </mxGeometry>
        </mxCell>
        <mxCell id="-k_n3W3u2BF3PkI6crBI-29" value="" style="endArrow=none;html=1;rounded=0;" parent="1" source="-k_n3W3u2BF3PkI6crBI-12" target="-k_n3W3u2BF3PkI6crBI-24" edge="1">
          <mxGeometry width="50" height="50" relative="1" as="geometry">
            <mxPoint x="215" y="181" as="sourcePoint" />
            <mxPoint x="481" y="266" as="targetPoint" />
          </mxGeometry>
        </mxCell>
        <mxCell id="-k_n3W3u2BF3PkI6crBI-30" value="" style="endArrow=none;html=1;rounded=0;entryX=0;entryY=0.5;entryDx=0;entryDy=0;" parent="1" source="-k_n3W3u2BF3PkI6crBI-12" target="-k_n3W3u2BF3PkI6crBI-10" edge="1">
          <mxGeometry width="50" height="50" relative="1" as="geometry">
            <mxPoint x="240" y="199" as="sourcePoint" />
            <mxPoint x="389" y="287" as="targetPoint" />
          </mxGeometry>
        </mxCell>
        <mxCell id="-k_n3W3u2BF3PkI6crBI-31" value="" style="endArrow=none;html=1;rounded=0;" parent="1" source="-k_n3W3u2BF3PkI6crBI-12" target="-k_n3W3u2BF3PkI6crBI-25" edge="1">
          <mxGeometry width="50" height="50" relative="1" as="geometry">
            <mxPoint x="240" y="201" as="sourcePoint" />
            <mxPoint x="495" y="393" as="targetPoint" />
          </mxGeometry>
        </mxCell>
        <mxCell id="-k_n3W3u2BF3PkI6crBI-32" value="" style="endArrow=none;html=1;rounded=0;entryX=0.438;entryY=0.026;entryDx=0;entryDy=0;entryPerimeter=0;" parent="1" source="-k_n3W3u2BF3PkI6crBI-12" target="-k_n3W3u2BF3PkI6crBI-16" edge="1">
          <mxGeometry width="50" height="50" relative="1" as="geometry">
            <mxPoint x="240" y="204" as="sourcePoint" />
            <mxPoint x="509" y="448" as="targetPoint" />
          </mxGeometry>
        </mxCell>
        <mxCell id="VumtPwIBwzDiypWiYB3E-1" value="View Scripts" style="ellipse;whiteSpace=wrap;html=1;" parent="1" vertex="1">
          <mxGeometry x="475" y="510" width="120" height="80" as="geometry" />
        </mxCell>
        <mxCell id="VumtPwIBwzDiypWiYB3E-3" value="" style="endArrow=none;html=1;rounded=0;entryX=0;entryY=0;entryDx=0;entryDy=0;" parent="1" source="-k_n3W3u2BF3PkI6crBI-12" target="VumtPwIBwzDiypWiYB3E-1" edge="1">
          <mxGeometry width="50" height="50" relative="1" as="geometry">
            <mxPoint x="200" y="179.99636363636364" as="sourcePoint" />
            <mxPoint x="460" y="520.36" as="targetPoint" />
          </mxGeometry>
        </mxCell>
        <mxCell id="VumtPwIBwzDiypWiYB3E-4" value="&lt;div&gt;Person&lt;/div&gt;" style="shape=umlActor;verticalLabelPosition=bottom;verticalAlign=top;html=1;outlineConnect=0;" parent="1" vertex="1">
          <mxGeometry x="70" y="150" width="30" height="60" as="geometry" />
        </mxCell>
        <mxCell id="VumtPwIBwzDiypWiYB3E-11" value="Extends" style="endArrow=block;endSize=16;endFill=0;html=1;rounded=0;entryX=0.5;entryY=0.5;entryDx=0;entryDy=0;entryPerimeter=0;" parent="1" source="-k_n3W3u2BF3PkI6crBI-12" target="VumtPwIBwzDiypWiYB3E-4" edge="1">
          <mxGeometry width="160" relative="1" as="geometry">
            <mxPoint x="180" y="300" as="sourcePoint" />
            <mxPoint x="170" y="210" as="targetPoint" />
          </mxGeometry>
        </mxCell>
      </root>
    </mxGraphModel>
  </diagram>
</mxfile>
